<?xml version="1.0" encoding="UTF-8"?>
<svg width="18px" height="18px" viewBox="0 0 18 18" version="1.1" xmlns="http://www.w3.org/2000/svg" xmlns:xlink="http://www.w3.org/1999/xlink">
    <title>next</title>
    <defs>
        <rect id="path-1" x="0" y="0" width="18" height="18"></rect>
    </defs>
    <g id="Page-1" stroke="none" stroke-width="1" fill="none" fill-rule="evenodd">
        <g id="next">
            <mask id="mask-2" fill="white">
                <use xlink:href="#path-1"></use>
            </mask>
            <g id="Rectangle"></g>
            <path d="M17,8.50444976 C17,8.37095364 16.9450139,8.24344241 16.8534951,8.14743492 L11.9039977,3.14793886 C11.7084916,2.95043776 11.3919994,2.9509365 11.196992,3.14793886 C11.0014858,3.34494122 11.0014858,3.6649246 11.196992,3.86192696 L15.2934774,7.99943378 L1.49998701,7.99943378 C1.22401746,7.99947534 1,8.2254462 1,8.50444976 C1,8.78345332 1.22401746,9.00946573 1.49998701,9.00946573 L15.2929787,9.00946573 L11.196992,13.1469726 C11.0014858,13.3439749 11.0019846,13.6639583 11.196992,13.8609607 C11.3924981,14.057963 11.7089903,14.057963 11.9039977,13.8609607 L16.8534951,8.86146459 C16.9469673,8.76695333 16.9985038,8.63694839 17,8.50444976 Z" id="path-1" fill="#FFFFFF" fill-rule="nonzero" mask="url(#mask-2)"></path>
        </g>
    </g>
</svg>